<?xml version="1.0" encoding="UTF-8"?> <svg xmlns="http://www.w3.org/2000/svg" width="716" height="168" viewBox="0 0 716 168" fill="none"> <rect width="716" height="168" fill="white"></rect> <path d="M35 21L18.5 37.5V144.5H61V53.5H77.5V144.5H119V53.5H135.5V144.5H177V21H35Z" fill="#052067"></path> <path d="M206.5 21L190 37.5V144.5H233V53.5H296V68H247.5V100.5H296V144.5H340V21H206.5Z" fill="#052067"></path> <path d="M369 21L352.5 37.5V98H448V114.5H352.5V144.5H493.5V68H396.5V53.5H493.5V21H369Z" fill="#052067"></path> <path d="M521 21L504.5 37.5V53.5H550V144.5H591.5V53.5H617L649.5 21H521Z" fill="#052067"></path> <path d="M692 154V15H698.5V154H692Z" fill="#052067"></path> <path d="M698.5 15H692V154H698.5V15Z" fill="#BBBBBB"></path> </svg> 